<?xml version="1.0" encoding="UTF-8"?>
<svg id="Layer_1" xmlns="http://www.w3.org/2000/svg" viewBox="0 0 49 49">
  <defs>
    <style>
      .cls-1 {
        fill: #fff;
      }

      .cls-2 {
        fill: #56a2d6;
        stroke: #fff;
        stroke-miterlimit: 10;
      }
    </style>
  </defs>
  <path class="cls-2" d="M24.5,48.5C11.27,48.5.5,37.73.5,24.5S11.27.5,24.5.5s24,10.77,24,24-10.77,24-24,24Z"/>
  <g>
    <path class="cls-1" d="M16.93,32.14c1.02-.4,1.45-.82,3.02-.83,1.24,0,1.87.3,2.48.59.55.26,1.07.51,2.13.51s1.58-.25,2.13-.51c.63-.35,1.68-.63,2.58-.59-.29-.75-.91-1.33-1.7-1.55l-.31-7.08s.84.14.83.12c.48,0,.54-.73.06-.79-1.67-.26-5.46-.83-7.15-1.09-.13,0-1.01-.21-1.13-.12-.37.12-.32.72.09.76l.77.12-2.44,6.66c-1.28-.04-2.42.91-2.62,2.18-.11.66.05,1.32.42,1.84.34-.05.6-.13.84-.22h0Z"/>
    <path class="cls-1" d="M26.39,15.69l.34-2.19c.1-.59-.24-1.21-.77-1.46l.19-1.19c2.3-.16,2.46-3.43.18-3.82-2.28-.31-3.11,2.86-.97,3.7l-.18,1.19c-.59.08-1.08.54-1.18,1.16l-.34,2.19c.46.08,2.74.42,2.74.42h0ZM25.12,9.59c-.86-1.23.94-2.5,1.83-1.32.85,1.23-.94,2.5-1.83,1.32Z"/>
    <path class="cls-1" d="M20.75,16.38l1.81.28-1.3,3.56c1,.16,4.97.76,5.93.9l-.17-3.78,1.81.28c.21.04.42-.11.45-.33.03-.22-.12-.43-.34-.46-1.35-.2-7.28-1.11-8.08-1.23-.51-.08-.64.71-.12.79h0Z"/>
    <path class="cls-1" d="M36.25,32.62c-1.26.78-3.71.77-4.95,0-.53-.28-1.32-.56-2.33-.5-2.07.09-2.15,1.12-4.41,1.1-2.35.02-2.37-1.08-4.61-1.1-1.06,0-1.58.25-2.13.51-.81.4-1.4.58-2.47.59-1.97.02-2.23-.75-3.82-1.04v3.55c1.71.23,1.92,1.06,3.82,1.05,1.06,0,1.58-.25,2.13-.51.61-.29,1.23-.59,2.47-.59s1.87.3,2.48.59c.55.26,1.07.51,2.13.51s1.58-.25,2.14-.51c.61-.29,1.23-.59,2.47-.59s1.87.3,2.48.59c.55.26,1.07.51,2.14.51,1.84,0,2.08-.78,3.7-1.04v-3.54c-.51.09-.86.26-1.23.43h0Z"/>
  </g>
</svg>