<?xml version="1.0" encoding="UTF-8"?>
<svg id="Layer_1" xmlns="http://www.w3.org/2000/svg" viewBox="0 0 52.07 47.03">
  <defs>
    <style>
      .cls-1 {
        fill: #f9e000;
        stroke: #0c0c0c;
        stroke-miterlimit: 10;
      }
    </style>
  </defs>
  <polygon class="cls-1" points="26.03 1.03 .85 46.53 51.22 46.53 26.03 1.03"/>
  <path d="M19.42,37.67c.89-.35,1.26-.72,2.64-.72,1.09,0,1.63.26,2.16.52.48.23.94.45,1.86.45s1.38-.22,1.86-.45c.55-.3,1.46-.55,2.25-.52-.25-.66-.8-1.16-1.49-1.35l-.27-6.18s.73.12.73.11c.42,0,.47-.63.06-.69-1.46-.23-4.77-.72-6.25-.95-.12,0-.89-.18-.99-.1-.32.11-.28.63.07.66l.67.1-2.13,5.82c-1.11-.03-2.11.8-2.28,1.9-.09.58.04,1.15.37,1.61.29-.04.52-.11.73-.2h0Z"/>
  <path d="M27.69,23.3l.3-1.91c.09-.52-.21-1.06-.67-1.27l.16-1.04c2.01-.14,2.15-2.99.16-3.33-1.99-.27-2.72,2.5-.85,3.23l-.16,1.04c-.52.07-.94.47-1.03,1.01l-.3,1.91c.4.07,2.39.37,2.39.37h0ZM26.58,17.98c-.75-1.07.82-2.18,1.6-1.16.74,1.07-.82,2.18-1.6,1.16Z"/>
  <path d="M22.76,23.91l1.58.24-1.14,3.1c.88.14,4.34.66,5.17.79l-.14-3.3,1.58.24c.18.03.37-.1.39-.29.03-.19-.1-.37-.29-.4-1.18-.18-6.36-.97-7.05-1.08-.44-.07-.56.62-.11.69h0Z"/>
  <path d="M36.29,38.08c-1.1.68-3.24.67-4.32,0-.46-.24-1.15-.49-2.04-.44-1.81.08-1.88.98-3.85.96-2.05.02-2.07-.94-4.02-.96-.92,0-1.38.22-1.86.45-.7.35-1.23.51-2.16.52-1.72.02-1.95-.65-3.33-.91v3.1c1.49.2,1.67.92,3.33.92.92,0,1.38-.22,1.86-.45.53-.25,1.08-.52,2.16-.52s1.63.26,2.16.52c.48.23.94.45,1.86.45s1.38-.22,1.86-.45c.53-.25,1.08-.52,2.16-.52s1.63.26,2.16.52c.48.23.94.45,1.86.45,1.61,0,1.82-.68,3.23-.91v-3.09c-.45.08-.75.22-1.07.38h0Z"/>
</svg>