<?xml version="1.0" encoding="utf-8"?>
<!-- Generator: Adobe Illustrator 23.0.3, SVG Export Plug-In . SVG Version: 6.00 Build 0)  -->
<svg version="1.1" id="Layer_1" xmlns="http://www.w3.org/2000/svg" xmlns:xlink="http://www.w3.org/1999/xlink" x="0px" y="0px"
	 viewBox="0 0 50 50" style="enable-background:new 0 0 50 50;" xml:space="preserve">
<style type="text/css">
	.st0{stroke:#FFFFFF;stroke-width:2;stroke-miterlimit:10;}
	.st1{fill-rule:evenodd;clip-rule:evenodd;fill:#FFFFFF;}
</style>
<path class="st0" d="M25,49C11.8,49,1,38.2,1,25S11.8,1,25,1s24,10.8,24,24S38.2,49,25,49z"/>
<path class="st1" d="M12.4,17c-1.1,1.1-1.1,2.9-1.1,6.4v3.3c0,3.5,0,5.2,1.1,6.4c1.1,1.1,2.8,1.2,6.3,1.3c1.3,0,2.6,0,3.7,0
	s2.4,0,3.7,0c3.4-0.1,5.2-0.1,6.3-1.3s1.1-2.9,1.1-6.4v-3.3c0-3.5,0-5.2-1.1-6.4c-1.1-1.1-2.8-1.2-6.2-1.3c-1.3,0-2.6-0.1-3.7-0.1
	s-2.4,0-3.7,0.1C15.2,15.8,13.5,15.9,12.4,17z M34.7,21.3c-0.2,0.4-0.2,1-0.2,2v3.5c0,1,0,1.6,0.2,2s0.7,0.7,1.6,1.3l1.6,1
	c1.2,0.8,1.8,1.2,2.3,0.9c0.5-0.3,0.5-1,0.6-2.4c0.1-1.5,0.1-3.1,0.1-4.5s-0.1-3-0.1-4.5c-0.1-1.4-0.1-2.1-0.6-2.4
	c-0.5-0.3-1.1,0.1-2.3,0.9l-1.6,1C35.4,20.6,34.9,20.8,34.7,21.3L34.7,21.3z"/>
</svg>
