<?xml version="1.0" encoding="UTF-8"?>
<svg id="Layer_1" xmlns="http://www.w3.org/2000/svg" viewBox="0 0 49 49">
  <defs>
    <style>
      .cls-1 {
        fill: #3f3f3f;
        stroke: #fff;
        stroke-miterlimit: 10;
      }

      .cls-2 {
        fill: #fff;
        fill-rule: evenodd;
      }
    </style>
  </defs>
  <path class="cls-1" d="M24.5,48.5C11.27,48.5.5,37.73.5,24.5S11.27.5,24.5.5s24,10.77,24,24-10.77,24-24,24Z"/>
  <path class="cls-2" d="M11.93,16.49c-1.1,1.12-1.1,2.87-1.1,6.37v3.29c0,3.5,0,5.24,1.1,6.37s2.81,1.17,6.25,1.25c1.3.03,2.6.05,3.74.05s2.43-.02,3.74-.05c3.44-.09,5.16-.13,6.25-1.25s1.1-2.87,1.1-6.37v-3.29c0-3.5,0-5.24-1.1-6.37s-2.81-1.17-6.25-1.25c-1.3-.03-2.6-.05-3.74-.05s-2.43.02-3.74.05c-3.44.09-5.16.13-6.25,1.25ZM34.2,20.78c-.24.43-.24.95-.24,1.99v3.46c0,1.04,0,1.56.24,1.99.24.43.68.71,1.56,1.27l1.57,1c1.22.77,1.83,1.16,2.32.9.49-.25.53-.97.6-2.4.07-1.45.14-3.14.14-4.49s-.06-3.03-.14-4.49c-.07-1.43-.11-2.15-.6-2.4-.49-.25-1.1.13-2.32.9l-1.57,1c-.88.55-1.32.83-1.56,1.27h0Z"/>
</svg>