<?xml version="1.0" encoding="UTF-8"?>
<svg id="Layer_1" xmlns="http://www.w3.org/2000/svg" viewBox="0 0 49 49">
  <defs>
    <style>
      .cls-1 {
        fill: #fff;
      }

      .cls-2 {
        fill: #00477f;
        stroke: #fff;
        stroke-miterlimit: 10;
      }
    </style>
  </defs>
  <path class="cls-2" d="M24.5,48.5C11.27,48.5.5,37.73.5,24.5S11.27.5,24.5.5s24,10.77,24,24-10.77,24-24,24Z"/>
  <path class="cls-1" d="M26.21,25.71l-1.17-6.11c1-.53,1.72-1.48,1.98-2.57.27.39.61.73,1.01,1,.66.45,1.43.68,2.21.68.25,0,.5-.02.75-.07,2.14-.41,3.54-2.48,3.13-4.62l-.69.13h0s-6.37,1.22-6.37,1.22c0,0,0,0,0,0l-.35.07h-.08s-.27.07-.27.07h0s-2.04.39-2.04.39l-.19-1.01,11.08-2.13c.28-.05.52-.21.67-.44.16-.23.22-.51.16-.79l-.21-1.12c-.05-.28-.21-.52-.44-.67-.23-.16-.51-.22-.79-.16l-11.08,2.13-.2-1.06,1.54-.3-.13-4.6-2.27.43-.17-.91-2.41.46.17.91-2.4.46,1.59,4.32,1.66-.32.2,1.06-10.76,2.07c-.57.11-.95.66-.84,1.23l.21,1.12c.05.28.21.52.44.67.18.12.38.18.59.18.07,0,.13,0,.2-.02l10.76-2.07.19,1.01-1.92.37-.69.13s0,0,0,0l-6.44,1.24-.63.12c.36,1.89,2.02,3.2,3.88,3.2.25,0,.5-.02.75-.07,1.57-.3,2.74-1.5,3.09-2.96.62.88,1.59,1.47,2.66,1.63l1.17,6.12-12.86,2.31,1.97,4.93h23.81l.9-9.71-11.41,2.04Z"/>
  <path class="cls-1" d="M38.08,31.28c-1.45.9-4.29.89-5.72,0-.61-.32-1.52-.65-2.7-.58-2.39.11-2.49,1.3-5.1,1.27-2.71.02-2.73-1.25-5.33-1.27-1.22,0-1.82.29-2.46.59-.93.46-1.62.67-2.86.68-2.28.02-2.58-.86-4.41-1.2v4.1c1.98.26,2.22,1.22,4.41,1.22,1.22,0,1.82-.29,2.46-.59.7-.33,1.43-.68,2.86-.68s2.16.35,2.86.68c.64.3,1.24.59,2.46.59s1.83-.29,2.47-.59c.7-.33,1.43-.68,2.86-.68s2.16.35,2.86.68c.64.3,1.24.59,2.47.59,2.13,0,2.41-.9,4.28-1.2v-4.1c-.59.1-1,.29-1.42.5h0Z"/>
  <path class="cls-1" d="M35.21,36.99c-1.44,0-2.16-.34-2.86-.68-.64-.3-1.24-.59-2.47-.59s-1.82.29-2.46.59c-.7.34-1.43.68-2.86.68s-2.16-.34-2.86-.68c-.64-.3-1.24-.59-2.47-.59s-1.82.29-2.46.59c-.7.34-1.43.68-2.86.68-2.28.02-2.58-.86-4.41-1.2v3.46h29.99v-3.43c-1.73.37-2.08,1.2-4.28,1.18h0Z"/>
</svg>