<?xml version="1.0" encoding="utf-8"?>
<!-- Generator: Adobe Illustrator 23.0.3, SVG Export Plug-In . SVG Version: 6.00 Build 0)  -->
<svg version="1.1" id="Layer_1" xmlns="http://www.w3.org/2000/svg" xmlns:xlink="http://www.w3.org/1999/xlink" x="0px" y="0px"
	 viewBox="0 0 50 50" style="enable-background:new 0 0 50 50;" xml:space="preserve">
<style type="text/css">
	.st0{fill:#70451B;stroke:#FFFFFF;stroke-width:2;stroke-miterlimit:10;}
	.st1{fill:#FFFFFF;}
</style>
<path class="st0" d="M25,49C11.8,49,1,38.2,1,25S11.8,1,25,1s24,10.8,24,24S38.2,49,25,49z"/>
<path class="st1" d="M26.7,26.2l-1.2-6.1c1-0.5,1.7-1.5,2-2.6c0.3,0.4,0.6,0.7,1,1c0.7,0.5,1.4,0.7,2.2,0.7c0.3,0,0.5,0,0.8-0.1
	c2.1-0.4,3.5-2.5,3.1-4.6l-0.7,0.1l0,0l-6.4,1.2l0,0l-0.4,0.1h-0.1L26.9,16l0,0l-2,0.4l-0.2-1l11.1-2.1c0.3-0.1,0.5-0.2,0.7-0.4
	c0.2-0.2,0.2-0.5,0.2-0.8l-0.2-1.1c0-0.3-0.2-0.5-0.4-0.7c-0.2-0.2-0.5-0.2-0.8-0.2L24,12.2l-0.2-1.1l1.5-0.3l-0.1-4.6L23,6.7
	l-0.2-0.9l-2.4,0.5l0.2,0.9l-2.4,0.5l1.6,4.3l1.7-0.3l0.2,1.1l-10.8,2.1c-0.6,0.1-0.9,0.7-0.8,1.2l0.2,1.1c0.1,0.3,0.2,0.5,0.4,0.7
	c0.2,0.1,0.4,0.2,0.6,0.2c0.1,0,0.1,0,0.2,0l10.8-2.1l0.2,1l-1.9,0.4l-0.7,0.1l0,0l-6.4,1.2l-0.6,0.1c0.4,1.9,2,3.2,3.9,3.2
	c0.3,0,0.5,0,0.8-0.1c1.6-0.3,2.7-1.5,3.1-3c0.6,0.9,1.6,1.5,2.7,1.6l1.2,6.1l-12.9,2.3l2,4.9h23.8l0.9-9.7L26.7,26.2L26.7,26.2z"/>
<path class="st1" d="M38.6,31.8c-1.5,0.9-4.3,0.9-5.7,0c-0.6-0.3-1.5-0.6-2.7-0.6c-2.4,0.1-2.5,1.3-5.1,1.3c-2.7,0-2.7-1.3-5.3-1.3
	c-1.2,0-1.8,0.3-2.5,0.6c-0.9,0.5-1.6,0.7-2.9,0.7c-2.3,0-2.6-0.9-4.4-1.2v4.1c2,0.3,2.2,1.2,4.4,1.2c1.2,0,1.8-0.3,2.5-0.6
	c0.7-0.3,1.4-0.7,2.9-0.7s2.2,0.3,2.9,0.7c0.6,0.3,1.2,0.6,2.5,0.6s1.8-0.3,2.5-0.6c0.7-0.3,1.4-0.7,2.9-0.7s2.2,0.3,2.9,0.7
	c0.6,0.3,1.2,0.6,2.5,0.6c2.1,0,2.4-0.9,4.3-1.2v-4.1C39.4,31.4,39,31.6,38.6,31.8L38.6,31.8L38.6,31.8z"/>
<path class="st1" d="M35.7,37.5c-1.4,0-2.2-0.3-2.9-0.7c-0.6-0.3-1.2-0.6-2.5-0.6s-1.8,0.3-2.5,0.6c-0.7,0.3-1.4,0.7-2.9,0.7
	s-2.2-0.3-2.9-0.7c-0.6-0.3-1.2-0.6-2.5-0.6s-1.8,0.3-2.5,0.6c-0.7,0.3-1.4,0.7-2.9,0.7c-2.3,0-2.6-0.9-4.4-1.2v3.5h30v-3.4
	C38.3,36.7,37.9,37.5,35.7,37.5L35.7,37.5L35.7,37.5z"/>
</svg>
