<?xml version="1.0" encoding="UTF-8"?>
<svg id="Layer_1" xmlns="http://www.w3.org/2000/svg" viewBox="0 0 53.77 48.56">
  <defs>
    <style>
      .cls-1 {
        fill: #f9e000;
        stroke: #0c0c0c;
        stroke-miterlimit: 10;
        stroke-width: 2px;
      }
    </style>
  </defs>
  <polygon class="cls-1" points="26.88 2.06 1.7 47.56 52.07 47.56 26.88 2.06"/>
  <g>
    <path d="M34.84,43.49h-2.85l-2.56-10.27c.46-.54.75-1.26.75-2.05,0-1.76-1.43-3.19-3.19-3.19s-3.19,1.43-3.19,3.19c0,.71.21,1.34.63,1.89l-2.47,10.48h-2.98c-1.09,0-1.09,1.68,0,1.68h15.88c1.05-.04,1.05-1.72-.04-1.72ZM24.15,41.27h5.57l.54,2.22h-6.62l.5-2.22ZM25.03,37.58h3.77l.5,2.01h-4.74l.46-2.01ZM25.83,34.14c.34.13.71.21,1.13.21.34,0,.67-.04,1.01-.17l.42,1.68h-2.93l.38-1.72ZM26.96,29.66c.84,0,1.51.67,1.51,1.51s-.67,1.51-1.51,1.51-1.51-.67-1.51-1.51.67-1.51,1.51-1.51Z"/>
    <path d="M31.15,31.38c-.04.25-.17.5-.38.71-.29.29-.34.88,0,1.17.34.29.84.34,1.17,0,.54-.54.88-1.34.88-2.14s-.34-1.55-.88-2.14c-.29-.29-.88-.34-1.17,0-.29.34-.34.84,0,1.17.29.38.42.8.38,1.22Z"/>
    <path d="M32.87,33.6c-.34.34-.34.88,0,1.17.34.34.88.34,1.17,0,2.01-1.97,2.01-5.28,0-7.25-.34-.34-.88-.34-1.17,0-.34.34-.34.88,0,1.17,1.34,1.38,1.34,3.56,0,4.9Z"/>
    <path d="M36.18,25.84c-.75-.75-1.97.42-1.17,1.17,2.31,2.31,2.31,6.04,0,8.3-.75.75.42,1.93,1.17,1.17,2.98-2.89,2.98-7.75,0-10.65Z"/>
    <path d="M22.02,33.3c.29.29.88.34,1.17,0,.29-.34.34-.84,0-1.17-.25-.25-.38-.54-.42-.88,0-.38.13-.71.42-.96.29-.29.34-.88,0-1.17-.34-.29-.84-.34-1.17,0-.54.54-.88,1.34-.88,2.14-.04.71.29,1.47.88,2.05Z"/>
    <path d="M19.92,34.81c.34.34.88.34,1.17,0,.34-.34.34-.88,0-1.17-1.38-1.34-1.38-3.52,0-4.9.34-.34.34-.88,0-1.17-.34-.34-.88-.34-1.17,0-2.01,1.97-2.01,5.24,0,7.25Z"/>
    <path d="M18.96,35.32c-2.31-2.31-2.31-6.04,0-8.3.75-.75-.42-1.93-1.17-1.17-2.98,2.93-2.98,7.75,0,10.69.75.71,1.93-.46,1.17-1.22Z"/>
  </g>
</svg>