<?xml version="1.0" encoding="UTF-8"?>
<svg id="Layer_1" xmlns="http://www.w3.org/2000/svg" viewBox="0 0 49 49">
  <defs>
    <style>
      .cls-1 {
        fill: #fff;
      }

      .cls-2 {
        fill: #56a2d6;
        stroke: #fff;
        stroke-miterlimit: 10;
      }
    </style>
  </defs>
  <path class="cls-2" d="M24.5,48.5C11.27,48.5.5,37.73.5,24.5S11.27.5,24.5.5s24,10.77,24,24-10.77,24-24,24Z"/>
  <g>
    <path class="cls-1" d="M35.03,33.74h-3.82l-3.42-13.75c.62-.73,1.01-1.68,1.01-2.75,0-2.36-1.91-4.27-4.27-4.27s-4.27,1.91-4.27,4.27c0,.95.28,1.8.84,2.53l-3.31,14.04h-3.99c-1.46,0-1.46,2.25,0,2.25h21.28c1.4-.06,1.4-2.3-.06-2.3ZM20.71,30.77h7.47l.73,2.98h-8.87l.67-2.98ZM21.89,25.83h5.05l.67,2.69h-6.34l.62-2.69ZM22.96,21.22c.45.17.95.28,1.52.28.45,0,.9-.06,1.35-.22l.56,2.25h-3.93l.51-2.3ZM24.47,15.21c1.12,0,2.02.9,2.02,2.02s-.9,2.02-2.02,2.02-2.02-.9-2.02-2.02.9-2.02,2.02-2.02Z"/>
    <path class="cls-1" d="M30.09,17.52c-.06.34-.22.67-.51.95-.39.39-.45,1.18,0,1.57.45.39,1.12.45,1.57,0,.73-.73,1.18-1.8,1.18-2.86s-.45-2.08-1.18-2.86c-.39-.39-1.18-.45-1.57,0-.39.45-.45,1.12,0,1.57.39.51.56,1.07.51,1.63Z"/>
    <path class="cls-1" d="M32.39,20.49c-.45.45-.45,1.18,0,1.57.45.45,1.18.45,1.57,0,2.69-2.64,2.69-7.07,0-9.71-.45-.45-1.18-.45-1.57,0-.45.45-.45,1.18,0,1.57,1.8,1.85,1.8,4.77,0,6.57Z"/>
    <path class="cls-1" d="M36.82,10.11c-1.01-1.01-2.64.56-1.57,1.57,3.09,3.09,3.09,8.08,0,11.12-1.01,1.01.56,2.58,1.57,1.57,3.99-3.87,3.99-10.39,0-14.26Z"/>
    <path class="cls-1" d="M17.85,20.1c.39.39,1.18.45,1.57,0,.39-.45.45-1.12,0-1.57-.34-.34-.51-.73-.56-1.18,0-.51.17-.95.56-1.29.39-.39.45-1.18,0-1.57-.45-.39-1.12-.45-1.57,0-.73.73-1.18,1.8-1.18,2.86-.06.95.39,1.96,1.18,2.75Z"/>
    <path class="cls-1" d="M15.04,22.12c.45.45,1.18.45,1.57,0,.45-.45.45-1.18,0-1.57-1.85-1.8-1.85-4.72,0-6.57.45-.45.45-1.18,0-1.57-.45-.45-1.18-.45-1.57,0-2.69,2.64-2.69,7.02,0,9.71Z"/>
    <path class="cls-1" d="M13.75,22.79c-3.09-3.09-3.09-8.08,0-11.12,1.01-1.01-.56-2.58-1.57-1.57-3.99,3.93-3.99,10.39,0,14.32,1.01.95,2.58-.62,1.57-1.63Z"/>
  </g>
</svg>