<?xml version="1.0" encoding="utf-8"?>
<!-- Generator: Adobe Illustrator 23.0.3, SVG Export Plug-In . SVG Version: 6.00 Build 0)  -->
<svg version="1.1" id="Layer_1" xmlns="http://www.w3.org/2000/svg" xmlns:xlink="http://www.w3.org/1999/xlink" x="0px" y="0px"
	 viewBox="0 0 50 50" style="enable-background:new 0 0 50 50;" xml:space="preserve">
<style type="text/css">
	.st0{fill:#9500FF;stroke:#F4F4F4;stroke-width:2;stroke-miterlimit:10;}
	.st1{fill:#FFFFFF;}
</style>
<path class="st0" d="M25,49C11.8,49,1,38.2,1,25S11.8,1,25,1s24,10.8,24,24S38.2,49,25,49z"/>
<path class="st1" d="M37.8,35.3h-4.7l-4.3-16.1c0.8-0.8,1.2-2,1.2-3.2c0-2.8-2.4-5-5.3-5s-5.3,2.2-5.3,5c0,1.1,0.3,2.1,1,3
	l-4.1,16.5h-5c-1.8,0-1.8,2.6,0,2.6h26.4C39.6,37.9,39.6,35.3,37.8,35.3L37.8,35.3z M20.1,31.8h9.3l0.9,3.5h-11L20.1,31.8L20.1,31.8
	z M21.5,26h6.3l0.8,3.2h-7.9L21.5,26L21.5,26z M22.9,20.6c0.6,0.2,1.2,0.3,1.9,0.3c0.6,0,1.1-0.1,1.7-0.3l0.7,2.6h-4.9L22.9,20.6
	L22.9,20.6z M24.7,13.6c1.4,0,2.5,1.1,2.5,2.4c0,1.3-1.1,2.4-2.5,2.4s-2.5-1.1-2.5-2.4S23.3,13.6,24.7,13.6z"/>
</svg>
